<svg width="304" height="146" viewBox="0 0 359 359" fill="none" xmlns="http://www.w3.org/2000/svg">
<g id="KWAlogo">
<rect id="KWAsquare" x="52" y="117" width="253" height="125" rx="15" fill="#6A0000"/>
<path id="KWAletters" d="M80.8608 214V144.182H89.3153V178.818H90.1335L121.497 144.182H132.543L103.224 175.682L132.543 214H122.315L98.0426 181.545L89.3153 191.364V214H80.8608ZM156.168 214L137.077 144.182H145.668L160.259 201.045H160.94L175.804 144.182H185.349L200.213 201.045H200.895L215.486 144.182H224.077L204.986 214H196.259L180.849 158.364H180.304L164.895 214H156.168ZM232.037 214H223.173L248.81 144.182H257.537L283.173 214H274.31L253.446 155.227H252.901L232.037 214ZM235.31 186.727H271.037V194.227H235.31V186.727Z" fill="white"/>
</g>
</svg>
