<svg width="304" height="146" viewBox="0 0 304 146" fill="none" xmlns="http://www.w3.org/2000/svg">
<g id="KYAlogo" clip-path="url(#clip0_0_1)">
<rect id="KYAsquare" x="25" y="11" width="253" height="125" rx="15" fill="#6A0000"/>
<path id="KYAletters" d="M68.3452 108V38.1818H76.7997V72.8182H77.6179L108.982 38.1818H120.027L90.7088 69.6818L120.027 108H109.8L85.527 75.5455L76.7997 85.3636V108H68.3452ZM124.97 38.1818H134.652L154.016 70.7727H154.834L174.197 38.1818H183.879L158.652 79.2273V108H150.197V79.2273L124.97 38.1818ZM190.553 108H181.689L207.325 38.1818H216.053L241.689 108H232.825L211.962 49.2273H211.416L190.553 108ZM193.825 80.7273H229.553V88.2273H193.825V80.7273Z" fill="white"/>
</g>
<defs>
<clipPath id="clip0_0_1">
<rect width="304" height="146" fill="white"/>
</clipPath>
</defs>
</svg>
